<svg width="13" height="17" viewBox="0 0 13 17" fill="none" xmlns="http://www.w3.org/2000/svg">
<path d="M6.50004 15.5833C6.50004 15.5833 0.833374 11.3333 0.833374 7.08333C0.833374 3.54167 3.66671 1.41667 6.50004 1.41667C9.33337 1.41667 12.1667 3.54167 12.1667 7.08333C12.1667 11.3333 6.50004 15.5833 6.50004 15.5833ZM6.50004 9.20833C7.06362 9.20833 7.60413 8.98445 8.00264 8.58593C8.40116 8.18742 8.62504 7.64692 8.62504 7.08333C8.62504 6.51975 8.40116 5.97924 8.00264 5.58073C7.60413 5.18221 7.06362 4.95833 6.50004 4.95833C5.93645 4.95833 5.39595 5.18221 4.99744 5.58073C4.59892 5.97924 4.37504 6.51975 4.37504 7.08333C4.37504 7.64692 4.59892 8.18742 4.99744 8.58593C5.39595 8.98445 5.93645 9.20833 6.50004 9.20833V9.20833Z" stroke="#777777"/>
</svg>
