<svg width="18" height="16" viewBox="0 0 18 16" fill="none" xmlns="http://www.w3.org/2000/svg">
<path fill-rule="evenodd" clip-rule="evenodd" d="M3.5 15C2.9641 15 2.46891 14.7141 2.20096 14.25C1.93301 13.7859 1.93301 13.2141 2.20096 12.75C2.46891 12.2859 2.9641 12 3.5 12H14.5C15.3284 12 16 12.6716 16 13.5C16 14.3284 15.3284 15 14.5 15H3.5Z" stroke="#ACC9DA" stroke-width="1.5" stroke-linecap="round" stroke-linejoin="round"/>
<path fill-rule="evenodd" clip-rule="evenodd" d="M2 4C3.265 6.228 6.065 9.569 9 4C11.935 9.569 14.735 6.228 16 4L14.6 12H3.4L2 4Z" stroke="#ACC9DA" stroke-width="1.5" stroke-linecap="round" stroke-linejoin="round"/>
<path fill-rule="evenodd" clip-rule="evenodd" d="M9 4C8.17157 4 7.5 3.32843 7.5 2.5C7.5 1.67157 8.17157 1 9 1C9.82843 1 10.5 1.67157 10.5 2.5C10.5 2.89782 10.342 3.27936 10.0607 3.56066C9.77936 3.84196 9.39782 4 9 4Z" stroke="#ACC9DA" stroke-width="1.5" stroke-linecap="round" stroke-linejoin="round"/>
<path fill-rule="evenodd" clip-rule="evenodd" d="M16 4C15.4477 4 15 3.55228 15 3C15 2.44772 15.4477 2 16 2C16.5523 2 17 2.44772 17 3C17 3.26522 16.8946 3.51957 16.7071 3.70711C16.5196 3.89464 16.2652 4 16 4Z" stroke="#ACC9DA" stroke-width="1.5" stroke-linecap="round" stroke-linejoin="round"/>
<path fill-rule="evenodd" clip-rule="evenodd" d="M2 4C1.44772 4 1 3.55228 1 3C1 2.44772 1.44772 2 2 2C2.55228 2 3 2.44772 3 3C3 3.26522 2.89464 3.51957 2.70711 3.70711C2.51957 3.89464 2.26522 4 2 4Z" stroke="#ACC9DA" stroke-width="1.5" stroke-linecap="round" stroke-linejoin="round"/>
</svg>
