<svg width="14" height="14" viewBox="0 0 14 14" fill="none" xmlns="http://www.w3.org/2000/svg">
<path fill-rule="evenodd" clip-rule="evenodd" d="M7 0.25C3.27208 0.25 0.25 3.27208 0.25 7C0.25 8.02772 0.480134 9.00348 0.892233 9.87698L0.364739 12.4474C0.220141 13.1519 0.835768 13.7784 1.54278 13.6461L4.20849 13.1474C5.06004 13.5346 6.00574 13.75 7 13.75C10.7279 13.75 13.75 10.7279 13.75 7C13.75 3.27208 10.7279 0.25 7 0.25ZM6.6625 3.625C6.28971 3.625 5.9875 3.92721 5.9875 4.3V4.975H4.6375V4.3C4.6375 3.18162 5.54412 2.275 6.6625 2.275H7.3375C8.45588 2.275 9.3625 3.18162 9.3625 4.3V5.09081C9.3625 5.62787 9.14915 6.14294 8.76939 6.5227L7.8727 7.41939C7.74612 7.54598 7.675 7.71767 7.675 7.89669V9.025H6.325V7.89669C6.325 7.35963 6.53835 6.84456 6.91811 6.4648L7.8148 5.56811C7.94138 5.44152 8.0125 5.26983 8.0125 5.09081V4.3C8.0125 3.92721 7.71029 3.625 7.3375 3.625H6.6625ZM6.325 9.7V11.05H7.675V9.7H6.325Z" fill="#D2D6DA"/>
<path d="M6.6625 3.625C6.28971 3.625 5.9875 3.92721 5.9875 4.3V4.975H4.6375V4.3C4.6375 3.18162 5.54412 2.275 6.6625 2.275H7.3375C8.45588 2.275 9.3625 3.18162 9.3625 4.3V5.09081C9.3625 5.62787 9.14915 6.14294 8.76939 6.5227L7.8727 7.41939C7.74612 7.54598 7.675 7.71767 7.675 7.89669V9.025H6.325V7.89669C6.325 7.35963 6.53835 6.84456 6.91811 6.4648L7.8148 5.56811C7.94138 5.44152 8.0125 5.26983 8.0125 5.09081V4.3C8.0125 3.92721 7.71029 3.625 7.3375 3.625H6.6625Z" fill="#D2D6DA"/>
<path d="M6.325 9.7V11.05H7.675V9.7H6.325Z" fill="#D2D6DA"/>
<circle cx="4" cy="7" r="1" fill="white"/>
<circle cx="7" cy="7" r="1" fill="white"/>
<circle cx="10" cy="7" r="1" fill="white"/>
</svg>
